HIERARCHY
ROOT Hips
{
    OFFSET 0.000000 0.000000 0.000000
    CHANNELS 6 Xposition Yposition Zposition Zrotation Xrotation Yrotation
    JOINT Spine
    {
        OFFSET -0.000000 7.236184 0.000000
        CHANNELS 3 Zrotation Xrotation Yrotation
        JOINT Spine1
        {
            OFFSET -0.000000 20.420147 0.000000
            CHANNELS 3 Zrotation Xrotation Yrotation
            JOINT Neck
            {
                OFFSET -0.000000 20.336288 1.848754
                CHANNELS 3 Zrotation Xrotation Yrotation
                JOINT Head
                {
                    OFFSET -0.000000 12.354461 -1.764923
                    CHANNELS 3 Zrotation Xrotation Yrotation
                    End Site
                    {
                        OFFSET -0.000000 22.061537 0.000000
                    }
                }
            }
            JOINT LeftShoulder
            {
                OFFSET 3.573296 18.396038 -0.314103
                CHANNELS 3 Zrotation Xrotation Yrotation
                JOINT LeftArm
                {
                    OFFSET 10.880760 0.000000 0.000000
                    CHANNELS 3 Zrotation Xrotation Yrotation
                    JOINT LeftForeArm
                    {
                        OFFSET 27.185530 0.000000 0.000000
                        CHANNELS 3 Zrotation Xrotation Yrotation
                        JOINT LeftHand
                        {
                            OFFSET 27.825975 0.000000 0.000000
                            CHANNELS 3 Zrotation Xrotation Yrotation
                            End Site
                            {
                                OFFSET 13.236923 0.000000 0.000000
                            }
                        }
                    }
                }
            }
            JOINT RightShoulder
            {
                OFFSET -3.474926 18.396038 -0.314103
                CHANNELS 3 Zrotation Xrotation Yrotation
                JOINT RightArm
                {
                    OFFSET -10.880760 0.000000 0.000000
                    CHANNELS 3 Zrotation Xrotation Yrotation
                    JOINT RightForeArm
                    {
                        OFFSET -27.185530 0.000000 0.000000
                        CHANNELS 3 Zrotation Xrotation Yrotation
                        JOINT RightHand
                        {
                            OFFSET -27.825975 0.000000 0.000000
                            CHANNELS 3 Zrotation Xrotation Yrotation
                            End Site
                            {
                                OFFSET -13.236923 0.000000 0.000000
                            }
                        }
                    }
                }
            }
        }
    }
    JOINT LeftUpLeg
    {
        OFFSET 8.824615 0.000000 0.000000
        CHANNELS 3 Zrotation Xrotation Yrotation
        JOINT LeftLeg
        {
            OFFSET -0.000000 -35.111282 0.000000
            CHANNELS 3 Zrotation Xrotation Yrotation
            JOINT LeftFoot
            {
                OFFSET -0.000000 -42.324711 0.000000
                CHANNELS 3 Zrotation Xrotation Yrotation
                JOINT LeftToeBase
                {
                    OFFSET -0.000000 -5.735999 13.236923
                    CHANNELS 3 Zrotation Xrotation Yrotation
                    End Site
                    {
                        OFFSET -0.000000 0.000000 3.529846
                    }
                }
            }
        }
    }
    JOINT RightUpLeg
    {
        OFFSET -8.824615 0.000000 0.000000
        CHANNELS 3 Zrotation Xrotation Yrotation
        JOINT RightLeg
        {
            OFFSET -0.000000 -35.111282 0.000000
            CHANNELS 3 Zrotation Xrotation Yrotation
            JOINT RightFoot
            {
                OFFSET -0.000000 -42.324711 0.000000
                CHANNELS 3 Zrotation Xrotation Yrotation
                JOINT RightToeBase
                {
                    OFFSET -0.000000 -5.735999 13.236923
                    CHANNELS 3 Zrotation Xrotation Yrotation
                    End Site
                    {
                        OFFSET -0.000000 0.000000 3.529846
                    }
                }
            }
        }
    }
}
MOTION
Frames:    11
Frame Time:    0.008333
-1.799433    81.062820    96.253975    -1.355886    -3.664069    -162.305618    -0.616109    -15.223490    1.459264    -0.944318    7.476166    1.603364    5.190729    6.027451    6.129090    -0.012358    2.631389    5.886758    0.601102    17.114336    -2.760349    -44.576050    47.049423    -39.862526    -2.895535    -5.170498    -17.130615    17.408003    -5.145746    3.010643    7.066640    19.303417    -3.094443    38.592861    47.323395    40.542061    0.749958    -3.778505    16.591721    -15.523867    -3.308503    -4.255307    2.016280    -5.433713    -3.351477    -2.606730    9.536892    -10.408489    -0.620563    -6.833109    -7.113039    0.596689    0.546965    -0.660760    -4.455535    2.218457    -4.285702    3.480867    6.008518    1.999222    -2.558703    -9.508251    -16.980844    -0.344759    0.283158    0.372739    
-1.846614    81.062325    96.259918    -1.350967    -3.654879    -162.286865    -0.611263    -15.229737    1.460227    -0.944098    7.476916    1.603704    5.149390    5.996710    5.993090    0.055002    2.697295    5.755745    0.605681    17.114931    -2.757424    -44.599674    47.041103    -39.841499    -2.900185    -5.168951    -17.131279    17.406828    -5.141416    3.033752    7.069870    19.296886    -3.089681    38.560940    47.331532    40.565033    0.743922    -3.784429    16.595753    -15.532377    -3.313367    -4.254441    1.987081    -5.425299    -3.355378    -2.605309    9.535520    -10.460625    -0.593018    -6.830157    -7.075933    0.595923    0.550812    -0.659907    -4.478556    2.215018    -4.292633    3.475237    6.038402    1.923583    -2.520514    -9.522184    -16.914227    -0.340536    0.267827    0.368182    
-1.894377    81.061760    96.266090    -1.346676    -3.646143    -162.270508    -0.607635    -15.235420    1.461536    -0.943733    7.477647    1.604571    5.103757    5.963447    5.847234    0.129239    2.764745    5.615543    0.610129    17.115585    -2.755830    -44.622169    47.033302    -39.820976    -2.904911    -5.168139    -17.131742    17.403111    -5.138170    3.055061    7.072648    19.290627    -3.084952    38.526348    47.339993    40.591541    0.737231    -3.792010    16.600454    -15.541003    -3.319740    -4.254188    1.957346    -5.416046    -3.361041    -2.605678    9.532052    -10.510495    -0.563672    -6.825920    -7.036620    0.595029    0.554409    -0.658913    -4.503097    2.209976    -4.299869    3.469743    6.068096    1.829157    -2.476161    -9.535664    -16.825844    -0.336299    0.254607    0.363606    
-1.941540    81.061195    96.272408    -1.343028    -3.637955    -162.256882    -0.605146    -15.240204    1.463170    -0.943462    7.478362    1.605886    5.055194    5.927970    5.694784    0.208586    2.832750    5.469179    0.614526    17.116373    -2.755361    -44.642395    47.026394    -39.802315    -2.909565    -5.168121    -17.131857    17.396835    -5.136385    3.072342    7.074987    19.284607    -3.080596    38.491058    47.348602    40.620174    0.729881    -3.801214    16.605707    -15.549438    -3.327541    -4.254613    1.927906    -5.406273    -3.368671    -2.607504    9.527421    -10.554586    -0.533894    -6.821193    -6.998134    0.594158    0.558042    -0.657944    -4.528368    2.203374    -4.307570    3.464309    6.097037    1.715450    -2.426623    -9.548294    -16.714897    -0.332098    0.244312    0.359070    
-1.989195    81.060623    96.279007    -1.339816    -3.629957    -162.245575    -0.603528    -15.243986    1.465142    -0.943411    7.479001    1.607643    5.002643    5.889636    5.532041    0.295167    2.902908    5.313132    0.618886    17.117100    -2.755991    -44.660786    47.020569    -39.785046    -2.913949    -5.168955    -17.131691    17.387941    -5.136101    3.085521    7.077067    19.278910    -3.076483    38.455479    47.356464    40.650726    0.722216    -3.811848    16.611494    -15.558338    -3.336638    -4.255486    1.898017    -5.395744    -3.378170    -2.610227    9.522099    -10.592367    -0.503513    -6.816390    -6.961512    0.593427    0.561445    -0.657131    -4.554823    2.195237    -4.315760    3.458909    6.125746    1.578888    -2.374954    -9.559493    -16.578869    -0.328204    0.236881    0.354863    
-2.036317    81.060112    96.285782    -1.337038    -3.622242    -162.236694    -0.602679    -15.246677    1.467327    -0.943799    7.479628    1.609733    4.947387    5.848943    5.362187    0.387235    2.974390    5.150442    0.623117    17.117748    -2.757498    -44.676548    47.016148    -39.769833    -2.917898    -5.170671    -17.131470    17.376707    -5.137304    3.094867    7.078757    19.273750    -3.072752    38.421471    47.363068    40.681973    0.714411    -3.823376    16.617577    -15.567687    -3.346542    -4.256762    1.868247    -5.384739    -3.389456    -2.613347    9.516566    -10.621923    -0.473876    -6.811935    -6.928739    0.592897    0.564908    -0.656539    -4.581712    2.185652    -4.324604    3.453476    6.153780    1.422640    -2.320182    -9.569413    -16.420399    -0.324562    0.231870    0.350928    
-2.083986    81.059647    96.292892    -1.334506    -3.614475    -162.229843    -0.602311    -15.248047    1.469708    -0.944883    7.479965    1.612188    4.888891    5.805423    5.181243    0.486042    3.048758    4.977098    0.627377    17.118565    -2.759988    -44.690075    47.012806    -39.756310    -2.921445    -5.173230    -17.131582    17.363449    -5.139611    3.102330    7.080324    19.268932    -3.069390    38.388851    47.368568    40.714085    0.706493    -3.835766    16.623936    -15.577755    -3.357234    -4.258285    1.837962    -5.373013    -3.402688    -2.616669    9.510962    -10.643775    -0.444332    -6.807894    -6.899492    0.592729    0.568113    -0.656350    -4.609396    2.174513    -4.334464    3.447672    6.182327    1.248297    -2.262681    -9.578404    -16.241234    -0.321176    0.229056    0.347268    
-2.131244    81.059250    96.300186    -1.332265    -3.606686    -162.225174    -0.602347    -15.248042    1.472256    -0.946733    7.480138    1.614857    4.828993    5.759944    4.992652    0.588581    3.124890    4.796173    0.631332    17.119440    -2.763246    -44.700996    47.010593    -39.744678    -2.924412    -5.176276    -17.132217    17.349495    -5.142461    3.109298    7.081588    19.264540    -3.066288    38.359154    47.372452    40.745739    0.698794    -3.848308    16.630438    -15.588250    -3.368070    -4.260043    1.807812    -5.360655    -3.418051    -2.620239    9.505241    -10.657094    -0.415637    -6.804302    -6.874366    0.592968    0.571416    -0.656611    -4.637209    2.162126    -4.345090    3.441504    6.211682    1.069115    -2.205281    -9.586703    -16.054949    -0.318123    0.227876    0.343967    
-2.178963    81.058914    96.307800    -1.330169    -3.598680    -162.222549    -0.602684    -15.246656    1.474987    -0.949407    7.480062    1.617821    4.767688    5.712024    4.792903    0.694898    3.204355    4.604025    0.635202    17.120289    -2.767267    -44.709969    47.009411    -39.734562    -2.926639    -5.179196    -17.133177    17.336424    -5.144873    3.117270    7.082391    19.260777    -3.063680    38.331367    47.375122    40.778248    0.691245    -3.860921    16.637211    -15.599451    -3.378934    -4.262168    1.777394    -5.347221    -3.436989    -2.624370    9.498800    -10.660984    -0.387263    -6.800869    -6.852939    0.593689    0.574738    -0.657405    -4.665657    2.148450    -4.356175    3.435139    6.243257    0.895576    -2.146497    -9.595477    -15.872079    -0.315118    0.227385    0.340719    
-2.225709    81.058632    96.315506    -1.328268    -3.590577    -162.221939    -0.603242    -15.243752    1.477721    -0.952890    7.479542    1.620813    4.708607    5.663690    4.588079    0.798704    3.284575    4.405949    0.638612    17.121193    -2.771861    -44.717266    47.008705    -39.725517    -2.928035    -5.180716    -17.134480    17.327505    -5.145339    3.127484    7.082816    19.257637    -3.061435    38.306110    47.377110    40.810463    0.683997    -3.873208    16.644094    -15.610352    -3.389466    -4.264575    1.747707    -5.332933    -3.459743    -2.629189    9.491462    -10.654779    -0.359917    -6.797508    -6.835728    0.595057    0.577670    -0.658916    -4.693847    2.134063    -4.367183    3.428835    6.276967    0.743155    -2.092834    -9.604430    -15.709313    -0.312328    0.227797    0.337702    
-2.273340    81.058395    96.323547    -1.326370    -3.582010    -162.223358    -0.603900    -15.239312    1.480548    -0.957326    7.478508    1.624012    4.651579    5.613608    4.370372    0.900120    3.368412    4.193807    0.641672    17.122108    -2.777005    -44.723385    47.008621    -39.717091    -2.928620    -5.180562    -17.136106    17.323906    -5.143289    3.141405    7.082793    19.255318    -3.059767    38.281494    47.378998    40.844677    0.676762    -3.885506    16.651283    -15.621150    -3.399971    -4.267244    1.717730    -5.317131    -3.487049    -2.634913    9.482816    -10.638971    -0.332480    -6.794064    -6.821447    0.597277    0.580588    -0.661371    -4.722775    2.118571    -4.378111    3.422465    6.314239    0.610795    -2.041914    -9.614260    -15.565366    -0.309630    0.228950    0.334784    
